<?xml version="1.0" encoding="utf-8"?>
<!-- Generator: Adobe Illustrator 24.3.0, SVG Export Plug-In . SVG Version: 6.00 Build 0)  -->
<svg version="1.1" id="Layer_1" xmlns="http://www.w3.org/2000/svg" xmlns:xlink="http://www.w3.org/1999/xlink" x="0px" y="0px"
	 viewBox="0 0 50 50" style="enable-background:new 0 0 50 50;" xml:space="preserve">
<style type="text/css">
	.st0{clip-path:url(#SVGID_2_);}
	.st1{fill:url(#SVGID_3_);}
	.st2{fill:#FFFFFF;}
</style>
<g>
	<defs>
		<rect id="SVGID_1_" x="1" y="1" width="48" height="48"/>
	</defs>
	<clipPath id="SVGID_2_">
		<use xlink:href="#SVGID_1_"  style="overflow:visible;"/>
	</clipPath>
	<g id="b" class="st0">
		
			<linearGradient id="SVGID_3_" gradientUnits="userSpaceOnUse" x1="3.911980e-02" y1="50.0021" x2="-5.520207e-03" y2="49.9645" gradientTransform="matrix(776 0 0 -776 12 38812)">
			<stop  offset="0" style="stop-color:#B6509E"/>
			<stop  offset="1" style="stop-color:#2EBAC6"/>
		</linearGradient>
		<circle class="st1" cx="25" cy="25" r="23.3"/>
		<path class="st2" d="M35.2,34.3l-7.9-19c-0.4-1-1.1-1.5-2-1.5h-0.7c-0.9,0-1.5,0.5-2,1.5l-3.4,8.3h-2.6c-0.8,0-1.4,0.6-1.4,1.4v0
			c0,0.8,0.6,1.4,1.4,1.4H18l-3.3,7.9c-0.1,0.2-0.1,0.4-0.1,0.5c0,0.4,0.1,0.8,0.4,1.1c0.3,0.3,0.6,0.4,1,0.4c0.3,0,0.6-0.1,0.8-0.3
			c0.3-0.2,0.4-0.4,0.6-0.7l3.6-8.9h2.5c0.8,0,1.4-0.6,1.4-1.4v0c0-0.8-0.6-1.4-1.4-1.4h-1.3l2.7-6.8l7.5,18.6
			c0.1,0.3,0.3,0.5,0.6,0.7c0.2,0.2,0.5,0.3,0.8,0.3c0.4,0,0.8-0.1,1-0.4c0.3-0.3,0.4-0.6,0.4-1.1C35.3,34.6,35.3,34.4,35.2,34.3z"
			/>
	</g>
</g>
</svg>
