<?xml version="1.0" encoding="utf-8"?>
<!-- Generator: Adobe Illustrator 24.3.0, SVG Export Plug-In . SVG Version: 6.00 Build 0)  -->
<svg version="1.1" id="Layer_1" xmlns="http://www.w3.org/2000/svg" xmlns:xlink="http://www.w3.org/1999/xlink" x="0px" y="0px"
	 viewBox="0 0 50 50" style="enable-background:new 0 0 50 50;" xml:space="preserve">
<style type="text/css">
	.st0{fill:#EAB300;}
	.st1{fill:#FFFFFF;}
</style>
<g>
	<path class="st0" d="M49,25c0,13.3-10.7,24-24,24C11.7,49,1,38.3,1,25C1,11.7,11.7,1,25,1S49,11.7,49,25L49,25z"/>
	<g>
		<path class="st1" d="M34.4,19.1c-0.3-3.2-3.1-4.3-6.6-4.6v-4.5h-2.7v4.3c-0.7,0-1.4,0-2.2,0v-4.4h-2.7l0,4.5c-0.6,0-1.2,0-1.7,0v0
			l-3.7,0v2.9c0,0,2,0,2,0c1.1,0,1.5,0.6,1.6,1.2l0,12.2c0,0.3-0.3,0.9-1,0.9c0,0-2,0-2,0L14.8,35h3.5c0.7,0,1.3,0,1.9,0l0,4.5H23
			V35c0.7,0,1.5,0,2.2,0l0,4.4h2.7V35c4.6-0.3,7.8-1.4,8.2-5.7c0.3-3.5-1.3-5-3.9-5.6C33.7,22.9,34.7,21.5,34.4,19.1L34.4,19.1z
			 M30.6,28.8c0,3.4-5.8,3-7.6,3v-6C24.9,25.8,30.6,25.3,30.6,28.8z M29.4,20.3c0,3.1-4.8,2.7-6.3,2.7v-5.4
			C24.6,17.6,29.4,17.1,29.4,20.3z"/>
	</g>
</g>
</svg>
