<?xml version="1.0" encoding="utf-8"?>
<!-- Generator: Adobe Illustrator 24.1.0, SVG Export Plug-In . SVG Version: 6.00 Build 0)  -->
<svg version="1.1" id="Layer_1" xmlns="http://www.w3.org/2000/svg" xmlns:xlink="http://www.w3.org/1999/xlink" x="0px" y="0px"
	 viewBox="0 0 50 50" style="enable-background:new 0 0 50 50;" xml:space="preserve">
<style type="text/css">
	.st0{fill-rule:evenodd;clip-rule:evenodd;fill:#5F45BA;}
</style>
<desc>Created with Sketch.</desc>
<g id="Mobile">
	<g id="Mobile_Landing-A.0" transform="translate(-20.000000, -26.000000)">
		<g id="Group" transform="translate(20.000000, 25.854056)">
			<path id="Fill-14" class="st0" d="M13.7,7.8c-0.8,1.3-2.5,1.7-3.8,1C8.6,8,8.2,6.3,8.9,5c0.8-1.3,2.5-1.7,3.8-1
				C14,4.8,14.4,6.5,13.7,7.8"/>
			<path id="Fill-16" class="st0" d="M4.3,6.6C3.7,7.5,2.5,7.8,1.6,7.3C0.7,6.7,0.4,5.5,0.9,4.6c0.5-0.9,1.7-1.2,2.7-0.7
				S4.8,5.7,4.3,6.6"/>
			<path id="Fill-18" class="st0" d="M30.4,46.5c10.1-1.2,18.2-9.4,18.9-19.9c0.7-11.8-8.2-22-20-22.7c-1.4-0.1-2.8,0-4.2,0.1
				c-2.8,0.2-5.2,1.3-5.2,1.3c-1.9,0.9-3.2,2.5-3.2,4.7c0,2.8,2.2,5,5,5c0.5,0,2.1-0.5,2.4-0.6c1.4-0.5,2.9-0.7,4.5-0.6
				c4.1,0.3,7.5,2.6,9.4,5.9c1,1.9,1.6,4,1.4,6.3c-0.4,6.4-5.9,11.2-12.3,10.8c-3.8-0.2-7-2.3-8.9-5.2c0,0,0,0,0,0c0,0,0,0,0,0
				c-2.3-3-1.8-7.8-1.8-7.9c-0.1-2.7-2.3-4.8-5-4.8c-2.3,0-4.3,1.6-4.8,3.7c-0.1,0.4-0.2,1.6-0.2,1.8C6,35.9,14.9,45.8,26.6,46.6
				C27.9,46.7,29.2,46.6,30.4,46.5"/>
			<path id="Fill-20" class="st0" d="M10.8,15.5c-1,1.7-3.2,2.3-4.9,1.2c-1.7-1-2.3-3.2-1.2-4.9c1-1.7,3.2-2.3,4.9-1.2
				C11.2,11.6,11.8,13.8,10.8,15.5"/>
		</g>
	</g>
</g>
</svg>
