<?xml version="1.0" encoding="utf-8"?>
<!-- Generator: Adobe Illustrator 24.2.2, SVG Export Plug-In . SVG Version: 6.00 Build 0)  -->
<svg version="1.1" id="Layer_1" xmlns="http://www.w3.org/2000/svg" xmlns:xlink="http://www.w3.org/1999/xlink" x="0px" y="0px"
	 viewBox="0 0 50 50" style="enable-background:new 0 0 50 50;" xml:space="preserve">
<style type="text/css">
	.st0{fill-rule:evenodd;clip-rule:evenodd;fill:#6B2DE3;}
	.st1{fill:#FFFFFF;}
</style>
<g id="StormX">
	<g id="stormx-mark-circular">
		<circle id="Oval" class="st0" cx="25" cy="25" r="24"/>
		<g id="mark" transform="translate(38.000000, 45.000000)">
			<path id="Combined-Shape" class="st1" d="M-20-33.2l8.6,10c1.6,1.8,1.6,4.5,0,6.3l-8.6,10h-7.9l9.5-11.1c1-1.2,1-3,0-4.2
				l-9.5-11.1H-20z M-5-12.6l7.1,5.8h-9.8l-4.4-5.4l4.2-1.1C-6.9-13.5-5.8-13.3-5-12.6z M2.1-33.2L-5-27.4c-0.8,0.7-1.9,0.9-2.9,0.6
				l-4.2-1.1l4.4-5.4H2.1z"/>
		</g>
	</g>
</g>
</svg>
