<svg xmlns="http://www.w3.org/2000/svg" viewBox="0 0 32 32"><circle cx="16" cy="16" r="16" fill="#2c7df7"/><path d="M18.1 25.8c-1.4 0-2.5-.3-3.1-1-.7-.7-1-1.4-1-2.2a1.45 1.45 0 0 1 .7-1.2c.2-.1.4-.2.7-.2s.5.1.7.2c.2.1.4.3.5.5.1.2.2.4.2.7 0 .4-.1.6-.3.9-.2.2-.4.4-.6.4.2.3.5.5.9.6.4.1.9.2 1.3.2.6 0 1.1-.2 1.6-.5s.8-.8 1.1-1.4c.2-.6.3-1.3.3-2.1 0-.9-.1-1.6-.4-2.2-.2-.6-.6-1.1-1.1-1.4-.5-.3-1-.4-1.6-.4-.4 0-.8.2-1.4.5l-1 .5V17l4.5-6H14v6.3c0 .5.1.9.3 1.3.2.3.6.5 1.1.5.4 0 .7-.1 1.1-.4.3-.2.6-.5.9-.9 0-.1.1-.1.1-.1l.1-.1c.1 0 .2 0 .3.1.1.1.2.3.2.4 0 .1 0 .2-.1.3-.3.6-.6 1-1.1 1.3-.4.3-1 .5-1.5.5-1.4 0-2.3-.3-2.8-.8s-.8-1.3-.8-2.2v-6.3H8.6V9.7h3.2V7.1l-.8-.8v-.5h2.1l.9.4v3.6h8.3l.8.8-5.1 5c.3-.1.6-.2 1-.2.5 0 1.2.2 1.9.5s1.2.8 1.6 1.4c.4.6.6 1.2.7 1.7.1.6.2 1 .2 1.5 0 1-.2 1.9-.6 2.7-.4.8-1 1.5-1.9 1.9-.9.4-1.8.7-2.8.7z" fill="#fff"/></svg>